

<svg version="1.1" id="google" xmlns="http://www.w3.org/2000/svg" xmlns:xlink="http://www.w3.org/1999/xlink" x="0px" y="0px"
	 width="500px" height="135px" viewBox="0 0 500 135" enable-background="new 0 0 500 135" xml:space="preserve">
<g>
	<path fill="#231F20" d="M489.6,95.5c-4.4,0-8,3.6-8,7.9c0,4.4,3.6,8,8,8s7.9-3.6,7.9-8S494,95.5,489.6,95.5L489.6,95.5L489.6,95.5
		L489.6,95.5z M489.6,110.4c-3.9,0-7-3.1-7-7c0-3.8,3.1-7,7-7c3.8,0,7,3.1,7,7C496.5,107.3,493.4,110.4,489.6,110.4L489.6,110.4
		L489.6,110.4L489.6,110.4z"/>
	<path fill="#231F20" d="M493.7,101.3c0-0.7-0.3-1.5-1-1.9s-1.4-0.4-2.2-0.4l0,0h-3.9v8.9h1.1v-4.1h2l2.5,4.1h1.3l-2.7-4.1l0,0
		C492.4,103.7,493.7,103.1,493.7,101.3L493.7,101.3L493.7,101.3L493.7,101.3z M489.4,102.9h-1.7v-3.1h2.5l0,0c1.1,0,2.3,0.2,2.3,1.5
		C492.5,103.1,490.6,102.9,489.4,102.9L489.4,102.9L489.4,102.9L489.4,102.9z"/>
	<path fill="#231F20" d="M443,58.4L459.2,41l0,0c0.9-1.3,1.4-2.2,1.4-2.9c0-1.3-1.1-1.8-4.5-1.8l0,0H452v-11h44.4v11h-5.8l0,0
		c-6.7,0-8,1-17.4,12.9l0,0L447.5,77v16.9l0,0c0,4.3,2.2,5.9,8.5,5.9l0,0h9.7v10.6h-62.1V99.7h9.7l0,0c6.3,0,8.5-1.5,8.5-5.9l0,0
		V76.9l-30.3-33.5l0,0c-5-5.9-4.3-7.1-18.2-7.1l0,0v-11h56.2v11h-4l0,0c-4.1,0-5.8,0.8-5.8,2.3c0,1.3,1.3,2.3,2,3.3l0,0L437,58.6
		l0,0C438.7,60.5,440.9,60.7,443,58.4L443,58.4L443,58.4L443,58.4z"/>
	<path fill="#231F20" d="M92.3,25.4h13.6V56H93.3l0,0c-1.1-6.1-4.9-8.5-8.4-11.7C78.6,38.4,65,33.6,53.5,33.6
		c-14.8,0-27.3,4.6-27.3,11.3c0,18.7,84.6,3.8,84.6,39.2c0,18.5-18.1,28.8-50.6,28.8c-11.3,0-28.3-3.5-38.4-8.8
		c-3.2-1.8-4.5,1.7-5.1,6.2l0,0H2.8V78.7h12.6l0,0c2.8,8,6.6,9.7,10.1,12.9c6.1,5.6,20.6,9.7,33.9,9.5c20.1-0.2,27-4.6,27-11
		s-6.8-7.9-28.8-11.3l0,0l-18.7-3.1l0,0C17.8,72.6,2.5,67.9,2.5,51.1c0-17.4,19.4-28.4,50.1-28.4c12.9,0,23.7,1.7,34.1,7.6
		C89.6,32.1,92.3,32.4,92.3,25.4L92.3,25.4L92.3,25.4L92.3,25.4z"/>
	<path fill="#231F20" d="M335.8,76.5l0.3-34l0,0c0-4.5-2.3-6-8.9-6l0,0h-7.8V26h49.5v10.6h-6.5l0,0c-6.6,0-8.9,1.5-8.9,6l0,0V111
		l-19.4-0.2l-62.8-59.4v43.2l0,0c0,4.3,2.3,6,8.9,6l0,0h8.6V111h-51.4v-10.4h8.5l0,0c6.6,0,8.9-1.7,8.9-6l0,0v-52l0,0
		c0-4.5-2.3-6-8.9-6l0,0h-8.5V26h44.5L335.8,76.5L335.8,76.5L335.8,76.5z"/>
	<path fill="#231F20" d="M180.4,22c-39.5,0-64.2,17.4-64.2,45.5c0,27.5,23.8,44.8,62.4,44.8c41,0,65.4-17.1,65.4-46.2
		C244.1,39.9,218.3,22,180.4,22L180.4,22L180.4,22L180.4,22z M179.5,101.2c-21.8,0-34.4-12.6-34.4-34.4c0-21.3,13.1-33.9,35.5-33.9
		c21.5,0,34,12.9,34,34.8C214.7,89.1,201.9,101.2,179.5,101.2L179.5,101.2L179.5,101.2L179.5,101.2z"/>
</g>
</svg>
